<?xml version="1.0" encoding="UTF-8" standalone="no"?>
<!-- Created with Inkscape (http://www.inkscape.org/) -->

<svg
   xmlns:dc="http://purl.org/dc/elements/1.1/"
   xmlns:cc="http://creativecommons.org/ns#"
   xmlns:rdf="http://www.w3.org/1999/02/22-rdf-syntax-ns#"
   xmlns:svg="http://www.w3.org/2000/svg"
   xmlns="http://www.w3.org/2000/svg"
   xmlns:sodipodi="http://sodipodi.sourceforge.net/DTD/sodipodi-0.dtd"
   xmlns:inkscape="http://www.inkscape.org/namespaces/inkscape"
   version="1.1"
   id="svg2"
   xml:space="preserve"
   width="661.89331"
   height="151.25333"
   viewBox="0 0 661.89331 151.25333"
   sodipodi:docname="logo RENATER.svg"
   inkscape:version="0.92.4 (5da689c313, 2019-01-14)"><metadata
     id="metadata8"><rdf:RDF><cc:Work
         rdf:about=""><dc:format>image/svg+xml</dc:format><dc:type
           rdf:resource="http://purl.org/dc/dcmitype/StillImage" /><dc:title></dc:title></cc:Work></rdf:RDF></metadata><defs
     id="defs6" /><sodipodi:namedview
     pagecolor="#ffffff"
     bordercolor="#666666"
     borderopacity="1"
     objecttolerance="10"
     gridtolerance="10"
     guidetolerance="10"
     inkscape:pageopacity="0"
     inkscape:pageshadow="2"
     inkscape:window-width="1920"
     inkscape:window-height="1043"
     id="namedview4"
     showgrid="false"
     inkscape:zoom="0.71461668"
     inkscape:cx="333.74536"
     inkscape:cy="75.626663"
     inkscape:window-x="0"
     inkscape:window-y="0"
     inkscape:window-maximized="1"
     inkscape:current-layer="g10" /><g
     id="g10"
     inkscape:groupmode="layer"
     inkscape:label="ink_ext_XXXXXX"
     transform="matrix(1.3333333,0,0,-1.3333333,0,151.25333)"><g
       id="g12"
       transform="scale(0.1)"><path
         d="m 1312.23,311.52 h -77.59 v 559.953 h 227.89 c 126.86,0 232.73,-13.282 232.73,-153.86 0,-114.004 -54.16,-150.722 -142.22,-160.859 L 1729.99,311.52 h -96.15 l -172.12,240.527 h -92.93 v 65.605 h 122.02 c 87.27,0 124.44,13.282 124.44,99.18 0,79.648 -45.25,89.043 -122.82,89.043 h -180.2 V 311.52"
         style="fill:#224a82;fill-opacity:1;fill-rule:nonzero;stroke:none"
         id="path14"
         inkscape:connector-curvature="0" /><path
         d="m 1312.23,311.52 h -77.59 v 559.953 h 227.89 c 126.86,0 232.73,-13.282 232.73,-153.86 0,-114.004 -54.16,-150.722 -142.22,-160.859 L 1729.99,311.52 h -96.15 l -172.12,240.527 h -92.93 v 65.605 h 122.02 c 87.27,0 124.44,13.282 124.44,99.18 0,79.648 -45.25,89.043 -122.82,89.043 h -180.2 V 311.52"
         style="fill:#10427a;fill-opacity:1;fill-rule:nonzero;stroke:none"
         id="path16"
         inkscape:connector-curvature="0" /><path
         d="m 1896.42,377.105 h 351.51 V 311.52 h -429.09 v 559.953 h 421.01 v -65.598 h -343.43 z m 56.56,255.391 h 261.81 V 566.91 h -261.81 v 65.586"
         style="fill:#224a82;fill-opacity:1;fill-rule:nonzero;stroke:none"
         id="path18"
         inkscape:connector-curvature="0" /><path
         d="m 1896.42,377.105 h 351.51 V 311.52 h -429.09 v 559.953 h 421.01 v -65.598 h -343.43 z m 56.56,255.391 h 261.81 V 566.91 h -261.81 v 65.586"
         style="fill:#10427a;fill-opacity:1;fill-rule:nonzero;stroke:none"
         id="path20"
         inkscape:connector-curvature="0" /><path
         d="m 2352.95,311.52 v 559.953 h 89.71 l 290.88,-444.368 v 444.368 h 77.56 V 311.52 h -87.25 L 2430.53,755.113 V 311.52 h -77.58"
         style="fill:#224a82;fill-opacity:1;fill-rule:nonzero;stroke:none"
         id="path22"
         inkscape:connector-curvature="0" /><path
         d="m 2352.95,311.52 v 559.953 h 89.71 l 290.88,-444.368 v 444.368 h 77.56 V 311.52 h -87.25 L 2430.53,755.113 V 311.52 h -77.58"
         style="fill:#10427a;fill-opacity:1;fill-rule:nonzero;stroke:none"
         id="path24"
         inkscape:connector-curvature="0" /><path
         d="m 3242.59,542.691 c -30.71,85.118 -64.65,168.672 -101.02,253.789 -71.91,-155.39 -133.32,-316.269 -180.19,-484.96 h -80.81 c 60.6,187.421 133.33,374.082 219.79,559.953 h 86.49 C 3272.49,684.82 3345.21,498.16 3405.83,311.52 h -85.68 c -16.98,54.668 -34.75,110.117 -54.12,165.546 h -196.37 l 21.01,65.625 h 151.92"
         style="fill:#224a82;fill-opacity:1;fill-rule:nonzero;stroke:none"
         id="path26"
         inkscape:connector-curvature="0" /><path
         d="m 3242.59,542.691 c -30.71,85.118 -64.65,168.672 -101.02,253.789 -71.91,-155.39 -133.32,-316.269 -180.19,-484.96 h -80.81 c 60.6,187.421 133.33,374.082 219.79,559.953 h 86.49 C 3272.49,684.82 3345.21,498.16 3405.83,311.52 h -85.68 c -16.98,54.668 -34.75,110.117 -54.12,165.546 h -196.37 l 21.01,65.625 h 151.92"
         style="fill:#10427a;fill-opacity:1;fill-rule:nonzero;stroke:none"
         id="path28"
         inkscape:connector-curvature="0" /><path
         d="m 3345.17,871.473 h 467.07 v -67.18 h -467.07 z m 194.76,-121.828 h 77.58 V 311.5 h -77.58 v 438.145"
         style="fill:#224a82;fill-opacity:1;fill-rule:nonzero;stroke:none"
         id="path30"
         inkscape:connector-curvature="0" /><path
         d="m 3345.17,871.473 h 467.07 v -67.18 h -467.07 z m 194.76,-121.828 h 77.58 V 311.5 h -77.58 v 438.145"
         style="fill:#10427a;fill-opacity:1;fill-rule:nonzero;stroke:none"
         id="path32"
         inkscape:connector-curvature="0" /><path
         d="m 3970.6,377.105 h 351.52 V 311.52 h -429.08 v 559.953 h 420.99 V 805.875 H 3970.6 Z m 56.58,255.391 h 261.81 V 566.91 h -261.81 v 65.586"
         style="fill:#224a82;fill-opacity:1;fill-rule:nonzero;stroke:none"
         id="path34"
         inkscape:connector-curvature="0" /><path
         d="m 3970.6,377.105 h 351.52 V 311.52 h -429.08 v 559.953 h 420.99 V 805.875 H 3970.6 Z m 56.58,255.391 h 261.81 V 566.91 h -261.81 v 65.586"
         style="fill:#10427a;fill-opacity:1;fill-rule:nonzero;stroke:none"
         id="path36"
         inkscape:connector-curvature="0" /><path
         d="m 4508.76,311.52 h -77.58 v 559.953 h 227.89 c 126.86,0 232.7,-13.282 232.7,-153.86 0,-114.004 -54.14,-150.722 -142.21,-160.859 L 4926.51,311.52 h -96.15 l -172.11,240.527 h -92.93 v 65.605 h 121.99 c 87.29,0 124.46,13.282 124.46,99.18 0,79.648 -45.24,89.043 -122.83,89.043 H 4508.76 V 311.52"
         style="fill:#224a82;fill-opacity:1;fill-rule:nonzero;stroke:none"
         id="path38"
         inkscape:connector-curvature="0" /><path
         d="m 4508.76,311.52 h -77.58 v 559.953 h 227.89 c 126.86,0 232.7,-13.282 232.7,-153.86 0,-114.004 -54.14,-150.722 -142.21,-160.859 L 4926.51,311.52 h -96.15 l -172.11,240.527 h -92.93 v 65.605 h 121.99 c 87.29,0 124.46,13.282 124.46,99.18 0,79.648 -45.24,89.043 -122.83,89.043 H 4508.76 V 311.52"
         style="fill:#10427a;fill-opacity:1;fill-rule:nonzero;stroke:none"
         id="path40"
         inkscape:connector-curvature="0" /><path
         d="m 1353.05,166.031 c -11.09,6.035 -26.95,7.871 -39.27,7.871 -45.59,0 -71.26,-33.632 -71.26,-79.0622 0,-46.25 24.93,-79.0781 71.26,-79.0781 11.57,0 29.19,1.5781 39.27,7.8867 l 0.99,-15.75777 C 1344.47,1.85156 1324.85,0 1313.78,0 c -55.39,0 -88.62,38.1016 -88.62,94.8398 0,55.6832 34.23,94.8442 88.62,94.8442 10.31,0 31.2,-1.856 40.26,-6.836 l -0.99,-16.817"
         style="fill:#61849c;fill-opacity:1;fill-rule:nonzero;stroke:none"
         id="path42"
         inkscape:connector-curvature="0" /><path
         d="m 1512.37,189.684 c 52.87,0 77.79,-45.196 77.28,-94.8442 C 1589.15,38.6289 1562.97,0 1512.37,0 c -50.58,0 -76.78,38.6289 -77.28,94.8398 -0.51,49.6482 24.42,94.8442 77.28,94.8442 m -59.92,-94.8442 c 0,-38.8906 18.64,-79.0781 59.92,-79.0781 41.29,0 59.92,40.1875 59.92,79.0781 0,38.8712 -18.63,79.0622 -59.92,79.0622 -41.28,0 -59.92,-40.191 -59.92,-79.0622"
         style="fill:#61849c;fill-opacity:1;fill-rule:nonzero;stroke:none"
         id="path44"
         inkscape:connector-curvature="0" /><path
         d="m 1665.41,186.52 h 21.89 l 89.37,-161.2895 h 0.51 V 186.52 h 17.37 V 3.16016 h -23.41 L 1683.28,161.305 h -0.5 V 3.16016 h -17.37 V 186.52"
         style="fill:#61849c;fill-opacity:1;fill-rule:nonzero;stroke:none"
         id="path46"
         inkscape:connector-curvature="0" /><path
         d="m 1876.09,186.52 h 21.9 l 89.39,-161.2895 h 0.48 V 186.52 h 17.39 V 3.16016 h -23.42 L 1893.97,161.305 h -0.5 V 3.16016 h -17.38 V 186.52"
         style="fill:#61849c;fill-opacity:1;fill-rule:nonzero;stroke:none"
         id="path48"
         inkscape:connector-curvature="0" /><path
         d="m 2089.05,186.52 h 86.09 v -15.762 h -68.72 v -65.406 h 65.2 V 89.5703 h -65.2 V 18.9219 h 71.75 V 3.16016 h -89.12 V 186.52"
         style="fill:#61849c;fill-opacity:1;fill-rule:nonzero;stroke:none"
         id="path50"
         inkscape:connector-curvature="0" /><path
         d="m 2378.3,166.031 c -11.08,6.035 -26.94,7.871 -39.29,7.871 -45.55,0 -71.23,-33.632 -71.23,-79.0622 0,-46.25 24.91,-79.0781 71.23,-79.0781 11.59,0 29.21,1.5781 39.29,7.8867 l 1.01,-15.75777 C 2369.74,1.85156 2350.09,0 2339.01,0 c -55.37,0 -88.6,38.1016 -88.6,94.8398 0,55.6832 34.24,94.8442 88.6,94.8442 10.34,0 31.22,-1.856 40.3,-6.836 l -1.01,-16.817"
         style="fill:#61849c;fill-opacity:1;fill-rule:nonzero;stroke:none"
         id="path52"
         inkscape:connector-curvature="0" /><path
         d="m 2501.12,170.777 h -51.87 v 15.743 h 121.09 v -15.743 h -51.85 V 3.14063 h -17.37 V 170.777"
         style="fill:#61849c;fill-opacity:1;fill-rule:nonzero;stroke:none"
         id="path54"
         inkscape:connector-curvature="0" /><path
         d="m 2637.05,186.52 h 86.09 v -15.762 h -68.74 v -65.406 h 65.2 V 89.5703 h -65.2 V 18.9219 h 71.75 V 3.16016 h -89.1 V 186.52"
         style="fill:#61849c;fill-opacity:1;fill-rule:nonzero;stroke:none"
         id="path56"
         inkscape:connector-curvature="0" /><path
         d="M 2931.83,67.2617 C 2931.83,13.1602 2893.81,0 2868.13,0 c -25.7,0 -63.7,13.1602 -63.7,67.2617 V 186.52 h 17.38 V 67.2617 c 0,-29.9609 15.86,-51.5 46.32,-51.5 30.46,0 46.32,21.5391 46.32,51.5 V 186.52 h 17.38 V 67.2617"
         style="fill:#61849c;fill-opacity:1;fill-rule:nonzero;stroke:none"
         id="path58"
         inkscape:connector-curvature="0" /><path
         d="m 3016.88,186.52 h 45.32 c 31.21,0 51.6,-13.907 51.6,-47.54 0,-23.648 -17.36,-39.4097 -39.02,-42.3003 v -0.5078 c 14.1,-1.8633 17.1,-9.7305 22.67,-22.0703 l 29.94,-70.94144 h -19.14 l -25.39,61.98824 c -10.08,23.6524 -17.65,24.4219 -34.26,24.4219 h -14.33 V 3.16016 h -17.39 z m 17.39,-81.168 h 18.36 c 20.39,0 43.81,8.117 43.81,33.628 0,29.922 -20.38,31.778 -44.32,31.778 h -17.85 v -65.406"
         style="fill:#61849c;fill-opacity:1;fill-rule:nonzero;stroke:none"
         id="path60"
         inkscape:connector-curvature="0" /><path
         d="m 3310.38,186.52 h 43.54 c 62.96,0 87.89,-37.813 87.89,-91.4106 0,-66.461 -42.56,-91.94924 -100.71,-91.94924 h -30.72 z m 17.36,-167.5981 h 14.38 c 49.82,0 82.3,21.039 82.3,77.25 0,55.9331 -31.95,74.5861 -71.25,74.5861 h -25.43 V 18.9219"
         style="fill:#61849c;fill-opacity:1;fill-rule:nonzero;stroke:none"
         id="path62"
         inkscape:connector-curvature="0" /><path
         d="m 3522.59,186.52 h 86.09 v -15.762 h -68.73 v -65.406 h 65.22 V 89.5703 h -65.22 V 18.9219 h 71.74 V 3.16016 h -89.1 V 186.52"
         style="fill:#61849c;fill-opacity:1;fill-rule:nonzero;stroke:none"
         id="path64"
         inkscape:connector-curvature="0" /><path
         d="m 3799.23,26.5195 c 10.31,-6.8007 22.4,-10.7382 38.75,-10.7382 21.68,0 39.57,11.5585 39.57,37.539 0,35.9883 -80.57,40.4688 -80.57,88.5317 0,29.414 24.65,47.832 55.63,47.832 8.53,0 22.4,-1.329 34.47,-6.055 l -2.77,-16.563 c -7.8,4.493 -20.12,6.836 -31.96,6.836 -18.12,0 -38.02,-7.89 -38.02,-31.523 0,-36.777 80.56,-37.027 80.56,-90.629 0,-37.0312 -30.47,-51.7304687 -57.65,-51.7304687 -17.11,0 -30.45,3.6718787 -39.77,7.8710987 l 1.76,18.62887"
         style="fill:#61849c;fill-opacity:1;fill-rule:nonzero;stroke:none"
         id="path66"
         inkscape:connector-curvature="0" /><path
         d="m 4026.28,186.52 h 19.65 l 69.7,-183.35984 h -18.12 l -18.87,49.14064 h -88.63 L 3971.14,3.16016 h -16.85 z m 8.57,-17.344 -38.28,-101.1369 h 76.29 z"
         style="fill:#61849c;fill-opacity:1;fill-rule:nonzero;stroke:none"
         id="path68"
         inkscape:connector-curvature="0" /><path
         d="m 4234.76,3.16016 h -18.64 L 4150.67,186.5 h 18.38 L 4225.69,21.2891 4284.35,186.5 h 17.12 L 4234.76,3.16016"
         style="fill:#61849c;fill-opacity:1;fill-rule:nonzero;stroke:none"
         id="path70"
         inkscape:connector-curvature="0" /><path
         d="m 4436.63,189.684 c 52.87,0 77.79,-45.196 77.29,-94.8442 C 4513.41,38.6289 4487.24,0 4436.63,0 c -50.6,0 -76.78,38.6289 -77.28,94.8398 -0.51,49.6482 24.41,94.8442 77.28,94.8442 m -59.9,-94.8442 c 0,-38.8906 18.59,-79.0781 59.9,-79.0781 41.27,0 59.9,40.1875 59.9,79.0781 0,38.8712 -18.63,79.0622 -59.9,79.0622 -41.31,0 -59.9,-40.191 -59.9,-79.0622"
         style="fill:#61849c;fill-opacity:1;fill-rule:nonzero;stroke:none"
         id="path72"
         inkscape:connector-curvature="0" /><path
         d="m 4589.66,3.16016 h 17.36 V 186.52 h -17.36 V 3.16016"
         style="fill:#61849c;fill-opacity:1;fill-rule:nonzero;stroke:none"
         id="path74"
         inkscape:connector-curvature="0" /><path
         d="m 4691.1,186.52 h 45.32 c 31.21,0 51.62,-13.907 51.62,-47.54 0,-23.648 -17.37,-39.4097 -39.05,-42.3003 v -0.5078 c 14.11,-1.8633 17.13,-9.7305 22.68,-22.0703 l 29.96,-70.94144 h -19.14 l -25.45,61.98824 c -10.06,23.6524 -17.6,24.4219 -34.22,24.4219 h -14.37 V 3.16016 h -17.35 z m 17.35,-81.168 h 18.4 c 20.39,0 43.82,8.117 43.82,33.628 0,29.922 -20.39,31.778 -44.33,31.778 h -17.89 v -65.406"
         style="fill:#61849c;fill-opacity:1;fill-rule:nonzero;stroke:none"
         id="path76"
         inkscape:connector-curvature="0" /><path
         d="m 4868.56,26.5195 c 10.32,-6.8007 22.41,-10.7382 38.77,-10.7382 21.66,0 39.52,11.5585 39.52,37.539 0,35.9883 -80.55,40.4688 -80.55,88.5317 0,29.414 24.67,47.832 55.62,47.832 8.56,0 22.41,-1.329 34.5,-6.055 l -2.78,-16.563 c -7.79,4.493 -20.11,6.836 -31.97,6.836 -18.13,0 -38.01,-7.89 -38.01,-31.523 0,-36.777 80.57,-37.027 80.57,-90.629 0,-37.0312 -30.47,-51.7304687 -57.66,-51.7304687 -17.11,0 -30.45,3.6718787 -39.76,7.8710987 l 1.75,18.62887"
         style="fill:#61849c;fill-opacity:1;fill-rule:nonzero;stroke:none"
         id="path78"
         inkscape:connector-curvature="0" /><path
         d="M 240.281,994.461 249.336,913.004 37.1992,927.898 0,868.336 187.93,767.867 l 11.152,-55.801 52.102,-87.461 -39.067,-20.468 22.324,-44.649 -68.855,-219.609 171.199,-65.098 9.641,-4.824 61.633,-31.094 121.914,45.196 6.011,1.718 c 17.075,20.782 368.176,460.235 -295.703,708.684"
         style="fill:#61849c;fill-opacity:1;fill-rule:nonzero;stroke:none"
         id="path80"
         inkscape:connector-curvature="0" /><path
         d="m 430.82,1004.69 c 0,0 547.024,-234.948 129.981,-712.448 l 89.551,25.332 162.89,-37.187 127.891,104.199 -72.168,39.043 v 44.648 l 2.051,160.039 -76.321,-22.304 16.535,61.367 105.157,89.336 55.703,148.84 -101.074,29.785 -169.129,70.71 -152.602,128.37 -27.586,-4.96 -0.281,-1.46 -33.012,-6.61 -18.582,-74.41 -39.004,-42.29"
         style="fill:#224a82;fill-opacity:1;fill-rule:nonzero;stroke:none"
         id="path82"
         inkscape:connector-curvature="0" /><path
         d="m 430.82,1004.69 c 0,0 547.024,-234.948 129.981,-712.448 l 89.551,25.332 162.89,-37.187 127.891,104.199 -72.168,39.043 v 44.648 l 2.051,160.039 -76.321,-22.304 16.535,61.367 105.157,89.336 55.703,148.84 -101.074,29.785 -169.129,70.71 -152.602,128.37 -27.586,-4.96 -0.281,-1.46 -33.012,-6.61 -18.582,-74.41 -39.004,-42.29"
         style="fill:#10427a;fill-opacity:1;fill-rule:nonzero;stroke:none"
         id="path84"
         inkscape:connector-curvature="0" /></g></g></svg>